<svg xmlns="http://www.w3.org/2000/svg" viewBox="0 0 800 600" role="img" aria-label="Illustration theme burn-out">
  <rect width="800" height="600" fill="#fbfaf7"/>
  <path d="M140 170 C240 120, 360 140, 440 200" fill="none" stroke="#3a3a38" stroke-width="4" stroke-linecap="round"/>
  <path d="M140 220 C260 160, 380 170, 500 240" fill="none" stroke="#3a3a38" stroke-width="3" stroke-linecap="round"/>
  <path d="M140 270 C260 210, 420 220, 560 290" fill="none" stroke="#3a3a38" stroke-width="3" stroke-linecap="round"/>
  <path d="M160 320 C280 260, 460 260, 620 330" fill="none" stroke="#3a3a38" stroke-width="2.5" stroke-linecap="round"/>
  <path d="M210 140 L260 170 L220 200 Z" fill="#f08aa4"/>
  <path d="M320 160 L380 140 L400 200 Z" fill="#6b8f86"/>
  <path d="M450 220 L520 210 L500 270 Z" fill="#f2c96b"/>
  <path d="M300 300 L360 280 L380 330 Z" fill="#e3a9b6"/>
  <path d="M520 320 L600 300 L620 360 Z" fill="#9bb2a6"/>
  <circle cx="610" cy="170" r="18" fill="#3a3a38" opacity="0.2"/>
</svg>
