<svg viewBox="0 0 24 24" width="28" height="28" fill="none" xmlns="http://www.w3.org/2000/svg">
  <rect x="4" y="8" width="16" height="12" rx="3" fill="#BFD3E6"></rect>
  <path d="M9 8V6.8c0-1 0.8-1.8 1.8-1.8h2.4c1 0 1.8 0.8 1.8 1.8V8" stroke="#2E2A28" stroke-width="2.6" stroke-linecap="round"></path>
  <path d="M4 11.2h16" stroke="#2E2A28" stroke-width="2.6" stroke-linecap="round"></path>
  <path d="M4.2 9.7c0-1 0.8-1.7 1.7-1.7h12.2c1 0 1.7 0.8 1.7 1.7v8.6c0 1-0.8 1.7-1.7 1.7H5.9c-1 0-1.7-0.8-1.7-1.7V9.7z" stroke="#2E2A28" stroke-width="2.6" stroke-linejoin="round"></path>
  <path d="M11 13h2" stroke="#2E2A28" stroke-width="2.6" stroke-linecap="round"></path>
</svg>
